<svg width="48" height="48" viewBox="0 0 41 40" fill="none" xmlns="http://www.w3.org/2000/svg">
<path d="M18.6318 12.0078L18.9998 11.9978H33.9998C35.6598 11.9977 37.2569 12.6326 38.4637 13.7725C39.6704 14.9123 40.3954 16.4706 40.4899 18.1278L40.4998 18.4978V33.4978C40.5 35.1581 39.8647 36.7555 38.7245 37.9623C37.5843 39.1691 36.0255 39.8939 34.3678 39.9878L33.9998 39.9978H18.9998C17.3396 39.998 15.7422 39.3627 14.5354 38.2225C13.3286 37.0823 12.6038 35.5235 12.5098 33.8658L12.4998 33.4998V18.4998C12.4997 16.8396 13.135 15.2422 14.2752 14.0354C15.4154 12.8286 16.9742 12.1038 18.6318 12.0098V12.0078ZM33.9998 14.9978H18.9998C18.1215 14.9979 17.2752 15.3282 16.6291 15.9232C15.9829 16.5182 15.5841 17.3344 15.5118 18.2098L15.4998 18.4978V33.4978C15.4999 34.3765 15.8305 35.2231 16.4259 35.8693C17.0214 36.5155 17.8381 36.914 18.7138 36.9858L18.9998 36.9978H33.9998C34.8785 36.9978 35.7251 36.6672 36.3713 36.0718C37.0175 35.4763 37.416 34.6596 37.4878 33.7838L37.4998 33.4978V18.4978C37.4998 17.5696 37.1311 16.6793 36.4747 16.023C35.8183 15.3666 34.9281 14.9978 33.9998 14.9978V14.9978ZM26.4998 17.9998C26.8977 17.9998 27.2792 18.1579 27.5605 18.4392C27.8418 18.7205 27.9998 19.102 27.9998 19.4998V24.4958H32.9998C33.3977 24.4958 33.7792 24.6539 34.0605 24.9352C34.3418 25.2165 34.4998 25.598 34.4998 25.9958C34.4998 26.3937 34.3418 26.7752 34.0605 27.0565C33.7792 27.3378 33.3977 27.4958 32.9998 27.4958H27.9998V32.4998C27.9998 32.8977 27.8418 33.2792 27.5605 33.5605C27.2792 33.8418 26.8977 33.9998 26.4998 33.9998C26.102 33.9998 25.7205 33.8418 25.4392 33.5605C25.1579 33.2792 24.9998 32.8977 24.9998 32.4998V27.4958H19.9998C19.602 27.4958 19.2205 27.3378 18.9392 27.0565C18.6579 26.7752 18.4998 26.3937 18.4998 25.9958C18.4998 25.598 18.6579 25.2165 18.9392 24.9352C19.2205 24.6539 19.602 24.4958 19.9998 24.4958H24.9998V19.4998C24.9998 19.102 25.1579 18.7205 25.4392 18.4392C25.7205 18.1579 26.102 17.9998 26.4998 17.9998ZM27.6638 4.46584L27.7678 4.81984L29.1538 9.99584H26.0478L24.8718 5.59584C24.753 5.15163 24.5478 4.73518 24.268 4.3703C23.9881 4.00542 23.6391 3.69926 23.2409 3.46932C22.8427 3.23938 22.4031 3.09016 21.9471 3.0302C21.4912 2.97023 21.028 3.00069 20.5838 3.11984L6.09584 7.00384C5.2501 7.23064 4.52009 7.76621 4.04986 8.50486C3.57964 9.24352 3.40338 10.1316 3.55584 10.9938L3.61984 11.2898L7.50384 25.7778C7.68602 26.4586 8.06949 27.0686 8.60405 27.5279C9.13861 27.9871 9.79937 28.2743 10.4998 28.3518V31.3638C9.19949 31.2863 7.95237 30.8202 6.92004 30.0257C5.8877 29.2312 5.11772 28.145 4.70984 26.9078L4.60584 26.5558L0.723843 12.0658C0.293848 10.4626 0.493514 8.75558 1.2819 7.29484C2.07028 5.8341 3.38764 4.73032 4.96384 4.20984L5.31984 4.10584L19.8078 0.223843C21.4111 -0.206152 23.1181 -0.00648552 24.5788 0.781898C26.0396 1.57028 27.1434 2.88764 27.6638 4.46384V4.46584Z" fill="#F81DFB"/>
</svg>
