<svg width="34" height="27" viewBox="0 0 34 27" fill="none" xmlns="http://www.w3.org/2000/svg">
<path d="M30.3719 6.82836C30.3937 7.12003 30.3937 7.41003 30.3937 7.70003C30.3937 16.575 23.5926 26.8017 11.1635 26.8017C7.33423 26.8017 3.77681 25.7 0.783203 23.7867C1.32688 23.8484 1.85043 23.87 2.41592 23.87C5.45818 23.8773 8.41428 22.8669 10.8077 21.0017C9.39723 20.9763 8.0299 20.5141 6.89666 19.6796C5.76342 18.8451 4.92086 17.6799 4.48661 16.3467C4.90444 16.4084 5.32395 16.45 5.76359 16.45C6.36936 16.45 6.97848 16.3667 7.54398 16.2217C6.01321 15.9147 4.63675 15.0906 3.64864 13.8895C2.66052 12.6884 2.12175 11.1844 2.12395 9.63336V9.55003C3.02505 10.0484 4.07046 10.36 5.17796 10.4017C4.25016 9.78934 3.48939 8.9584 2.96353 7.98302C2.43767 7.00763 2.16307 5.91812 2.16422 4.8117C2.16422 3.56503 2.49815 2.4217 3.08378 1.42503C4.78218 3.50006 6.90046 5.19763 9.30144 6.40779C11.7024 7.61796 14.3325 8.31372 17.0215 8.45003C16.9174 7.95003 16.8537 7.4317 16.8537 6.9117C16.8532 6.02997 17.0278 5.15679 17.3673 4.3421C17.7068 3.5274 18.2047 2.78716 18.8324 2.16368C19.4601 1.5402 20.2054 1.04572 21.0257 0.708495C21.8459 0.371274 22.725 0.197927 23.6128 0.198365C25.5593 0.198365 27.3162 1.00836 28.5512 2.31836C30.0644 2.02773 31.5155 1.47907 32.8403 0.696698C32.3359 2.24806 31.2793 3.56354 29.8685 4.3967C31.2105 4.24466 32.5222 3.89412 33.7598 3.3567C32.8354 4.6952 31.69 5.86894 30.3719 6.82836Z" fill="#AD1AAF"/>
</svg>
