<svg width="22" height="22" viewBox="0 0 22 22" fill="none" xmlns="http://www.w3.org/2000/svg">
<path fill-rule="evenodd" clip-rule="evenodd" d="M12.7741 2.41375C11.7497 1.54908 10.251 1.54908 9.22655 2.41375L8.12873 3.34038C7.98359 3.46288 7.80397 3.53728 7.61472 3.55328L6.18321 3.67435C4.8474 3.78732 3.7877 4.84702 3.67473 6.18283L3.55367 7.61434C3.53766 7.80359 3.46326 7.9832 3.34076 8.12835L2.41413 9.22616C1.54946 10.2506 1.54946 11.7493 2.41413 12.7737L3.34076 13.8715C3.46326 14.0167 3.53766 14.1963 3.55367 14.3855L3.67473 15.8171C3.7877 17.1528 4.8474 18.2126 6.18321 18.3255L7.61472 18.4466C7.80397 18.4626 7.98359 18.537 8.12873 18.6595L9.22655 19.5861C10.251 20.4508 11.7497 20.4508 12.7741 19.5861L13.8719 18.6595C14.0171 18.537 14.1967 18.4626 14.3859 18.4466L15.8175 18.3255C17.1532 18.2126 18.2129 17.1528 18.3259 15.8171L18.447 14.3855C18.463 14.1963 18.5374 14.0167 18.6599 13.8715L19.5865 12.7737C20.4512 11.7493 20.4512 10.2506 19.5865 9.22616L18.6599 8.12835C18.5374 7.9832 18.463 7.80359 18.447 7.61434L18.3259 6.18283C18.2129 4.84702 17.1532 3.78732 15.8175 3.67435L14.3859 3.55328C14.1967 3.53728 14.0171 3.46288 13.8719 3.34038L12.7741 2.41375ZM15.2503 9.2917C15.5725 8.96951 15.5725 8.44715 15.2503 8.12497C14.9281 7.80278 14.4058 7.80278 14.0836 8.12497L10.0836 12.1249L7.917 9.9583C7.59482 9.63609 7.07246 9.63609 6.75028 9.9583C6.42809 10.2805 6.42809 10.8028 6.75028 11.125L9.50027 13.875C9.82247 14.1972 10.3448 14.1972 10.667 13.875L15.2503 9.2917Z" fill="#00FF38"/>
</svg>
